# xmcd
#
# Track frame offsets:
# 150
# 17025
# 38583
# 59042
# 90262
# 106092
# 124784
# 142092
# 159987
# 174919
# 190435
# 204481
# 218834
# 237133
# 250466
# 277588
#
# Disc length: 4440 seconds
#
#
# Revision: 1
# Processed by: cddbd v1.5.1PL2 Copyright (c) Steve Scherf et al.
# Submitted via: FreeRIP 2.80 
#
DISCID=d5115610
DTITLE=Guilherme e Santiago - E pra sempre te amar
DYEAR=0005
DGENRE=Country
TTITLE0=Alô meu povo
TTITLE1=Azul
TTITLE2=O nosso amor
TTITLE3=Me esqueça - No limite
TTITLE4=Hábito
TTITLE5=Chovendo estrelas
TTITLE6=Som e Imagem
TTITLE7=É pra sempre te amar
TTITLE8=Magia e Mistério
TTITLE9=Franguinho na panela
TTITLE10=Gosto de mulher meu amigo de pinga
TTITLE11=Peão não chora
TTITLE12=From this moment one
TTITLE13=Ainda ontem chorei de saudade
TTITLE14=Pra que chorar
TTITLE15=s
EXTD=
EXTT0=
EXTT1=
EXTT2=
EXTT3=
EXTT4=
EXTT5=
EXTT6=
EXTT7=
EXTT8=
EXTT9=
EXTT10=
EXTT11=
EXTT12=
EXTT13=
EXTT14=
EXTT15=
PLAYORDER=
